# xmcd
#
# Track frame offsets:
#	150
#	6508
#	9966
#	13421
#	20640
#	21240
#	25501
#	26221
#	44258
#	47182
#	51025
#	56080
#	67490
#	70738
#	73398
#	75335
#	77237
#	92205
#	93584
#	101106
#	101944
#	107460
#	108602
#	113793
#	117727
#	120238
#	126887
#	130651
#	131508
#	149049
#	149907
#	156960
#	159115
#	161772
#	164151
#	165618
#	176282
#	179576
#	180809
#	188318
#	193540
#	195281
#	207611
#	209855
#	219294
#	229869
#	232501
#	242943
#	243909
#	251766
#	257286
#	258515
#
# Disc length: 3664 seconds
#
# Revision: 0
# Processed by: cddbd v1.5.2PL0 Copyright (c) Steve Scherf et al.
# Submitted via: dBpowerAMP V4.0
#
DISCID=f50e4e34
DTITLE=Stefan Grossman - Fiddle Tunes for Fingerstyle Guitar #1
DYEAR=2001
DGENRE=Acoustic
TTITLE0=Performance of Colored Artistocracy
TTITLE1=Intro to Colored Aristocracy
TTITLE2=Tuning
TTITLE3=Teaching first to bars of Colored Aristocracy
TTITLE4=Plays slowly first two bars of Colored Aristocracy
TTITLE5=Teaching third and fourht bars of Colored Aristocracy
TTITLE6=Plays slowly third and fourth bars of Colored Aristocracy
TTITLE7=Teaching fifth to eight bars of Colored Aristocracy
TTITLE8=Plays slowly first to eight bars of Colored Aristocracy
TTITLE9=Teaching ending to section A of Colored Aristocracy
TTITLE10=Plays slowly section A of Colored Aristocracy
TTITLE11=Teaching section B of Colored Aristocracy
TTITLE12=Plays slowly section B of Colored Aristocracy
TTITLE13=Plays up to tempo section A and B of section B of Colored Aristocracy
TTITLE14=Intro to Midnight on the water
TTITLE15=Tuning to dropped D tuning
TTITLE16=Performance of Midnight on the water
TTITLE17=Plays basic verse of Midnight on the water
TTITLE18=Teaching of basic verse of Midnight on the water
TTITLE19=Plays slowly first three bars of Midnight on the water
TTITLE20=Teaching first of fourth of Midnight on the water
TTITLE21=Plays fifth on sixth bars of Midnight on the water
TTITLE22=Teaching from sixth bar of Midnight on the water
TTITLE23=Plays slowly basic verse of Midnight on the water
TTITLE24=Plays chorus of Midnight on the water
TTITLE25=Teaching of first three bars of chorus of Midnight on the water
TTITLE26=Plays slowly first three bars of chorus of Midnight on the water
TTITLE27=Plays slowly first four bars of chorus of Midnight on the water
TTITLE28=Teaching from fourth bar D chord of Midnight on the water
TTITLE29=Teaching from fifth bar of chorus of Midnight on the water
TTITLE30=Teaching from ninth (G chord position) of Midnight on the water
TTITLE31=Plays from ninth bar of Midnight on the water
TTITLE32=Plays slowly complete chorus of Midnight on the water
TTITLE33=Discussion of arranging various sections of Midnight on the water
TTITLE34=Plays variation of verse of Midnight on the water
TTITLE35=Teaching of variation of verse of Midnight on the water
TTITLE36=Plays slowly variation of verse of Midnight on the water
TTITLE37=Plays single string melody variation of Midnight on the water
TTITLE38=Teaching of single string melody variation of Midnight on the water
TTITLE39=Plays slowly single string melody variation of Midnight on the water
TTITLE40=Intro to Jay Unger performing Midnight on the water
TTITLE41=Jay Unger performing Midnight on the water
TTITLE42=Intro to The West Wind
TTITLE43=Performance of The West Wind
TTITLE44=Teaching verse (first sixteen bars) of The West Wind
TTITLE45=Plays slowly verse with both endings of The West Wind
TTITLE46=Teaching firtst part of chorus (seventeenth to twenty-fourth bars) of The West Wind
TTITLE47=Plays slowly seventeenth to twenty-fourth bars of The West Wind
TTITLE48=Teaching from twenty-fifth bars to end of The West Wind
TTITLE49=Plays chorus, verse and chorus of The West Wind
TTITLE50=Intro to Duck Baker performing a medley of The West Wind and The Blackbird
TTITLE51=Duck Baker performance of The West Wind and The Blackbird
EXTD=Guitar Lessons
EXTT0=
EXTT1=
EXTT2=
EXTT3=
EXTT4=
EXTT5=
EXTT6=
EXTT7=
EXTT8=
EXTT9=
EXTT10=
EXTT11=
EXTT12=
EXTT13=
EXTT14=
EXTT15=
EXTT16=
EXTT17=
EXTT18=
EXTT19=
EXTT20=
EXTT21=
EXTT22=
EXTT23=
EXTT24=
EXTT25=
EXTT26=
EXTT27=
EXTT28=
EXTT29=
EXTT30=
EXTT31=
EXTT32=
EXTT33=
EXTT34=
EXTT35=
EXTT36=
EXTT37=
EXTT38=
EXTT39=
EXTT40=
EXTT41=
EXTT42=
EXTT43=
EXTT44=
EXTT45=
EXTT46=
EXTT47=
EXTT48=
EXTT49=
EXTT50=
EXTT51=
PLAYORDER=
